<svg width="1196" height="365" viewBox="0 0 1196 365" fill="none" xmlns="http://www.w3.org/2000/svg">
<path d="M299.162 120C366.532 120 421.147 174.614 421.147 241.984C421.147 309.355 366.532 363.97 299.162 363.97C231.792 363.969 177.178 309.355 177.178 241.984C177.178 174.614 231.792 120 299.162 120ZM299.163 183.171C266.079 183.171 239.26 209.991 239.26 243.074C239.26 276.158 266.079 302.978 299.163 302.978C332.247 302.978 359.066 276.158 359.066 243.074C359.066 209.991 332.247 183.171 299.163 183.171Z" fill="#FBF5E6"/>
<path d="M1195.38 238.643C1195.41 239.689 1195.42 240.738 1195.42 241.791C1195.42 242.844 1195.41 243.893 1195.38 244.939V364H1133.38V348.053C1115.68 358.061 1095.22 363.776 1073.44 363.776C1006.07 363.776 951.451 309.161 951.451 241.791C951.451 174.421 1006.07 119.807 1073.44 119.807C1095.22 119.807 1115.68 125.52 1133.38 135.528V0H1195.38V238.643ZM1073.44 182.978C1040.35 182.978 1013.53 209.797 1013.53 242.881C1013.53 275.964 1040.35 302.784 1073.44 302.784C1106.52 302.784 1133.34 275.964 1133.34 242.881C1133.34 209.797 1106.52 182.978 1073.44 182.978Z" fill="#FBF5E6"/>
<path d="M561.975 364C621.134 364 669.164 319.725 669.792 264.887H669.801V130.921H607.719L607.718 173.036V251.817H607.671C607.702 252.539 607.719 253.265 607.719 253.995C607.719 280.462 586.994 301.918 561.43 301.918C539.304 301.918 520.807 285.845 516.23 264.363V251.817H516.229V130.921H454.148V264.887H454.156C454.785 319.725 502.815 364 561.975 364Z" fill="#FBF5E6"/>
<path d="M810.627 131C869.786 131 917.816 175.274 918.444 230.112H918.452V364.078H856.371V243.183H856.323C856.354 242.46 856.371 241.734 856.371 241.004C856.371 214.537 835.647 193.081 810.082 193.081C787.957 193.081 769.46 209.153 764.883 230.635V364.078H702.801V230.112H702.809C703.437 175.274 751.468 131 810.627 131Z" fill="#FBF5E6"/>
<path d="M144.178 0V62H122.178V62.082C122.113 62.0818 122.049 62.0811 121.984 62.0811C89.3623 62.0811 62.8316 88.1577 62.0977 120.604H62.082V121.829C62.0819 121.881 62.0811 121.933 62.0811 121.984C62.0811 122.036 62.0819 122.087 62.082 122.139V149H144.178V208H62.082V364.028H0V126.594H0.0869141C0.030096 125.064 9.63586e-07 123.528 0 121.984C0.000287755 54.6144 54.6144 0.000238634 121.984 0C122.049 9.52447e-08 122.113 0.000876491 122.178 0.000976562V0H144.178Z" fill="#FBF5E6"/>
</svg>
