<svg width="143" height="41" viewBox="0 0 143 41" fill="none" xmlns="http://www.w3.org/2000/svg">
<path d="M69.2373 10.9766C75.4099 10.9767 80.4141 15.9807 80.4141 22.1533C80.414 28.3258 75.4098 33.33 69.2373 33.3301C63.0647 33.3301 58.0607 28.3259 58.0605 22.1533C58.0605 15.9807 63.0647 10.9766 69.2373 10.9766ZM69.2363 16.7646C66.2053 16.7648 63.7482 19.2219 63.748 22.2529C63.748 25.2841 66.2052 27.7411 69.2363 27.7412C72.2675 27.7412 74.7246 25.2841 74.7246 22.2529C74.7245 19.2218 72.2675 16.7646 69.2363 16.7646Z" fill="#F6F4DF"/>
<path d="M143.001 21.7539H142.99C142.995 21.8865 143 22.0196 143 22.1533C143 28.3258 137.996 33.33 131.823 33.3301C125.651 33.3301 120.647 28.3259 120.646 22.1533C120.646 15.9807 125.651 10.9766 131.823 10.9766C133.819 10.9766 135.691 11.5016 137.312 12.418V0H143.001V21.7539ZM131.823 16.7646C128.792 16.7648 126.335 19.2219 126.335 22.2529C126.335 25.2841 128.792 27.7411 131.823 27.7412C134.854 27.7412 137.312 25.2841 137.312 22.2529C137.311 19.2218 134.854 16.7646 131.823 16.7646Z" fill="#F6F4DF"/>
<circle cx="16.0663" cy="18.4618" r="16.0663" fill="#F6F4DF"/>
<path d="M15.4205 16.665C13.8633 16.7052 12.6753 16.8659 11.4774 17.6191C10.2795 18.3724 8.97178 20.0797 11.9266 21.8875C14.8815 23.6952 14.023 25.8545 13.2244 26.7082C12.7751 27.2773 10.6389 28.8775 5.6875 30.7254C10.5291 35.1444 17.6666 35.2448 21.1605 33.7885C25.0338 28.0439 22.608 24.6493 21.1605 23.3437C19.7131 22.0381 16.7682 21.1844 14.5221 20.0797C12.276 18.975 14.2393 17.2341 15.4205 16.665Z" fill="#008081"/>
<path d="M15.6456 9.49674C15.7801 9.16411 16.2511 9.16411 16.3856 9.49674L17.0949 11.25C17.1325 11.343 17.2038 11.4185 17.2946 11.4613L18.9927 12.2626C19.2978 12.4065 19.2978 12.8406 18.9927 12.9845L17.2946 13.7858C17.2038 13.8286 17.1325 13.9041 17.0949 13.9971L16.3856 15.7504C16.2511 16.083 15.7801 16.083 15.6456 15.7504L14.9363 13.9971C14.8987 13.9041 14.8274 13.8286 14.7366 13.7858L13.0385 12.9845C12.7334 12.8406 12.7334 12.4065 13.0385 12.2626L14.7366 11.4613C14.8274 11.4185 14.8987 11.343 14.9363 11.25L15.6456 9.49674Z" fill="#E3735F"/>
<path d="M93.2861 33.3301C98.7063 33.3299 103.105 29.2734 103.162 24.249H103.183V20.5566H97.5059L97.4775 23.0518H97.4727C97.4755 23.1181 97.4766 23.1849 97.4766 23.252C97.4765 25.6768 95.5775 27.6425 93.2354 27.6426C91.2085 27.6424 89.5142 26.17 89.0947 24.2021V11.9746H83.4062V24.249H83.4092C83.4667 29.2734 87.8659 33.3299 93.2861 33.3301Z" fill="#F6F4DF"/>
<path d="M107.393 8.98145C101.972 8.98145 97.5732 13.0381 97.5156 18.0625H97.4951V21.2812H103.216L103.235 19.6045C103.214 19.4262 103.201 19.2448 103.201 19.0605C103.201 16.6357 105.1 14.67 107.442 14.6699C109.655 14.6699 111.47 16.4235 111.665 18.6611H111.675V31.1348H111.666V33.3301H117.254V18.6943C117.265 18.5182 117.271 18.3408 117.271 18.1621C117.271 13.0919 112.849 8.98163 107.393 8.98145Z" fill="#F6F4DF"/>
<path d="M56.3818 0V5.68848H54.4854V5.69043C51.5428 5.74332 49.1673 8.11068 49.1006 11.0498H49.0967V13.6719H55.9824V19.0605H49.0967V33.3535H43.4082V11.5996H43.4189C43.4137 11.4593 43.4082 11.3184 43.4082 11.1768C43.4083 5.07084 48.3052 0.111288 54.3857 0.00488281V0H56.3818Z" fill="#F6F4DF"/>
<path d="M86.3694 4.59082L91.5979 10.1292H81.1409L86.3694 4.59082Z" fill="#F6F4DF"/>
<path d="M114.609 40.7148L109.381 35.1765H119.838L114.609 40.7148Z" fill="#F6F4DF"/>
</svg>
