<svg width="81" height="81" viewBox="0 0 81 81" fill="none" xmlns="http://www.w3.org/2000/svg">
<g clip-path="url(#clip0_54_5097)">
<path d="M30.4372 9.87835C17.8296 13.9701 10.9263 27.5073 15.0181 40.1149C16.7709 45.5156 20.6921 49.4924 24.6622 52.7552L48.3811 70.4536C48.9014 70.842 49.5776 70.9526 50.1939 70.7526C50.8103 70.5525 51.2926 70.0659 51.4857 69.446L60.2907 41.192C61.7079 36.9871 62.4266 30.6981 60.6738 25.2974C56.582 12.6898 43.0448 5.78655 30.4372 9.87835ZM42.1678 46.0224C34.8134 48.4093 26.9166 44.3823 24.5297 37.028C22.1429 29.6736 26.1698 21.7768 33.5242 19.3899C40.8786 17.0031 48.7754 21.03 51.1622 28.3844C53.5491 35.7388 49.5221 43.6356 42.1678 46.0224Z" fill="#E3735F"/>
<path d="M34.1424 21.2927C27.8391 23.3384 24.3872 30.1077 26.4329 36.411C28.4786 42.7143 35.2479 46.1663 41.5512 44.1205C47.8545 42.0748 51.3065 35.3056 49.2607 29.0022C47.215 22.6989 40.4458 19.2469 34.1424 21.2927ZM40.9338 42.2182C35.6805 43.9231 30.0398 41.0459 28.3352 35.7936C26.6306 30.5413 29.5066 24.9 34.7598 23.195C40.0131 21.4901 45.6538 24.3673 47.3584 29.6196C49.063 34.8719 46.1871 40.5133 40.9338 42.2182Z" fill="#E3735F"/>
</g>
<defs>
<clipPath id="clip0_54_5097">
<rect width="64" height="64" fill="white" transform="translate(0 19.7568) rotate(-17.9808)"/>
</clipPath>
</defs>
</svg>
