<svg width="64" height="64" viewBox="0 0 64 64" fill="none" xmlns="http://www.w3.org/2000/svg">
<g clip-path="url(#clip0_79_5831)">
<path d="M32 0C18.745 0 8 10.745 8 24C8 29.678 10.502 34.671 13.271 39L30.368 63.156C30.743 63.686 31.352 64 32 64C32.648 64 33.257 63.686 33.632 63.156L50.729 39C53.375 35.438 56 29.678 56 24C56 10.745 45.255 0 32 0ZM32 38C24.268 38 18 31.732 18 24C18 16.268 24.268 10 32 10C39.732 10 46 16.268 46 24C46 31.732 39.732 38 32 38Z" fill="#E3735F"/>
<path d="M32 12C25.373 12 20 17.373 20 24C20 30.627 25.373 36 32 36C38.627 36 44 30.627 44 24C44 17.373 38.627 12 32 12ZM32 34C26.477 34 22 29.522 22 24C22 18.478 26.477 14 32 14C37.523 14 42 18.478 42 24C42 29.522 37.523 34 32 34Z" fill="#E3735F"/>
</g>
<defs>
<clipPath id="clip0_79_5831">
<rect width="64" height="64" fill="white"/>
</clipPath>
</defs>
</svg>
