<svg width="272" height="262" viewBox="0 0 272 262" fill="none" xmlns="http://www.w3.org/2000/svg">
<path d="M114.023 10.4756C125.012 -3.49135 146.175 -3.49135 157.164 10.4756L163.388 18.3856C169.889 26.6491 180.541 30.472 190.813 28.2291L200.868 26.0337C218.523 22.1789 235.02 36.1422 234.136 54.1915L233.763 61.8026C233.231 72.6777 239.177 82.8395 248.919 87.7025L255.995 91.2348C272.521 99.4843 276.345 121.373 263.595 134.737L258.781 139.784C251.173 147.758 249.074 159.51 253.449 169.626L256.174 175.924C263.444 192.732 252.528 211.811 234.353 214.059L225.201 215.192C214.594 216.504 205.714 223.854 202.442 234.029L199.722 242.486C194.256 259.485 174.269 266.821 159.104 257.394L150.084 251.787C141.211 246.271 129.977 246.271 121.104 251.787L112.084 257.394C96.9187 266.821 76.9318 259.485 71.4654 242.486L68.7458 234.029C65.474 223.854 56.5937 216.504 45.9871 215.192L36.8348 214.059C18.6602 211.811 7.74371 192.732 15.0141 175.924L17.7386 169.626C22.1142 159.51 20.0144 147.758 12.4067 139.784L7.59251 134.737C-5.1571 121.373 -1.33282 99.4843 15.193 91.2348L22.2692 87.7025C32.011 82.8395 37.9572 72.6777 37.4244 61.8026L37.0516 54.1915C36.1674 36.1422 52.665 22.1789 70.3201 26.0337L80.3746 28.2291C90.6472 30.472 101.298 26.6491 107.8 18.3856L114.023 10.4756Z" fill="#E3735F"/>
</svg>
